<?xml version="1.0" encoding="utf-8"?>
<!-- Generator: Adobe Illustrator 23.0.6, SVG Export Plug-In . SVG Version: 6.00 Build 0)  -->
<svg version="1.1" alt ="howto" xmlns="http://www.w3.org/2000/svg" xmlns:xlink="http://www.w3.org/1999/xlink" x="0px" y="0px"
	 viewBox="0 0 200 166.7" style="enable-background:new 0 0 200 166.7;" xml:space="preserve">
<style type="text/css">
	.st2{fill:none;stroke:#342e37;stroke-miterlimit:10;stroke-width:1.4;}
</style>
<g id="Layer_6">
	<g>
		<path class="st2" d="M17.1,144.2v-1.1c0-15.4,0-30.8,0-46.2c0-1.3,0.3-1.6,1.6-1.6c32.3,0,64.6,0,96.9,0h1.3 M117.7,163.5
			c-24.7,0-54.5,0-79.2,0 M46,110.9c-3.4,0-6.7,0-10.1,0c-1.4,0-2.1,0.6-2.1,2c0,5.4,0,10.7,0,16.1c0,1.4,0.6,2.1,2.1,2.1
			c6.7,0,13.4,0,20.1,0c1.5,0,2.1-0.6,2.1-2.1c0-5.3,0-10.6,0-15.9c0-1.5-0.6-2.1-2.2-2.1C52.6,110.9,49.3,110.9,46,110.9z
			 M94.8,131c3.3,0,6.7,0,10,0c1.5,0,2.1-0.6,2.1-2.1c0-5.3,0-10.5,0-15.8c0-1.7-0.6-2.3-2.2-2.3c-6.6,0-13.2,0-19.8,0
			c-1.6,0-2.2,0.6-2.2,2.2c0,5.3,0,10.5,0,15.8c0,1.6,0.6,2.2,2.2,2.2C88.2,131,91.5,131,94.8,131z"/>
		<path class="st2" d="M162.1,163.5c-13.6,0-30.6,0-44.3,0c-0.6,0-0.9,0-0.9-0.8c0-28.2,0-56.4,0-84.6c0-2.1,0.9-3.4,2.7-3.8
			c0.5-0.1,0.9-0.1,1.4-0.1c15.1,0,30.2,0,45.3,0c2.9,0,5.8,0,8.7,0c2.2,0,3.6,1.4,3.6,3.6c0,23,0,46,0,69.1l0,1.5 M148.8,91.5
			c-6.8,0-13.7,0-20.5,0c-1.5,0-2.1,0.6-2.1,2.1c0,4.9,0,9.8,0,14.7c0,1.5,0.6,2.2,2.2,2.2c13.6,0,27.2,0,40.8,0
			c1.6,0,2.2-0.6,2.2-2.2c0-4.9,0-9.7,0-14.6c0-1.6-0.6-2.2-2.2-2.2C162.4,91.5,155.6,91.5,148.8,91.5z M148.7,145.7
			c6.8,0,13.6,0,20.4,0c1.7,0,2.3-0.6,2.3-2.3c0-4.8,0-9.6,0-14.4c0-1.7-0.5-2.3-2.3-2.3c-13.6,0-27.2,0-40.8,0
			c-1.5,0-2.1,0.6-2.1,2.1c0,4.9,0,9.8,0,14.6c0,1.6,0.6,2.2,2.3,2.2C135.2,145.7,142,145.7,148.7,145.7z"/>
		<path class="st2" d="M62.3,95.4L62.3,94c-0.3-5.1-0.5-10.2-0.7-15.2c-0.2-3.8-0.4-7.7-0.6-11.5c-0.3-6.4-0.6-12.8-1-19.3
			c-0.2-4.1-0.4-8.3-0.6-12.4c-0.3-5.4-0.5-10.9-0.8-16.3c-0.2-4.8-0.5-9.5-0.7-14.3c0-0.6-0.4-0.9-0.9-1c-0.3-0.1-0.6,0-0.8,0
			c-5.4,0-10.9,0-16.3,0c-3.7,0-7.3,0-11,0c-1,0-1.4,0.3-1.4,1.2c-0.3,5.9-0.6,11.8-0.9,17.7c-0.2,4.4-0.4,8.9-0.6,13.3
			c-0.3,6.2-0.6,12.4-0.9,18.6c-0.2,4.4-0.4,8.7-0.6,13.1c-0.3,5.2-0.5,10.4-0.8,15.7c-0.2,3.6-0.3,7.1-0.5,10.7L23,95.4"/>
		<path class="st2" d="M71.3,95.4l0.1-1.4c0.3-6.1,0.6-12.1,0.9-18.2c0.3-5.9,0.6-11.8,0.9-17.7c0.3-6.6,0.6-13.2,0.9-19.8
			c0.3-5.5,0.5-11,0.8-16.4c0-0.7,0.3-1,1-1c0.5,0,1.1,0,1.6,0c6.9,0,13.8,0,20.8,0c1.2,0,1.4,0.1,1.4,1.3
			c0.4,8.6,0.8,17.2,1.3,25.8c0.4,7.8,0.8,15.6,1.1,23.4c0.4,7.5,0.7,15,1.1,22.6l0.1,1.4"/>
		<path class="st2" d="M165.7,156.8c-0.5-1.6-0.6-3.1-0.3-4.7c0.8-4.1,6.1-6,9.5-4.2c0.8,0.4,1.6,1,2.2,1.6c0.3,0.3,0.9,0.5,1,0.2
			c1.4-5.2,7.3-7.4,11.7-4.4c1.7,1.1,2.9,2.6,3.6,4.5c0.9,2.4,0.5,4.6-1,6.7c-0.1,0.1,0.1,0.4,0.3,0.4c1.1-0.4,2.3-0.6,3.4-0.5
			c1.8,0.2,3,1.4,3.3,3.5c0.3,1.6-0.5,2.8-2.2,3.6c-0.8,0.4-1.7,0.6-2.7,0.6c-9.7,0-19.5,0-29.2,0c-1.3,0-2.7,0.1-4-0.2
			c-0.5-0.1-1.1-0.3-1.6-0.6c-0.8-0.5-1.2-1.2-1.3-2.2c0-2.8,1.8-4.3,4.5-3.9C164,157,165.7,157.1,165.7,156.8z"/>
		<path class="st2" d="M39,156.9c1.6,0.3,2.5,1.7,2.6,3.6c0.1,1.5-0.7,2.4-2.2,2.9c-1.4,0.5-2.9,0.4-4.3,0.4c-9.9,0-19.8,0-29.7,0
			c-0.9,0-1.7-0.2-2.5-0.6c-1.6-0.7-2.4-2-2.1-3.5c0.3-2,1.5-3.3,3.2-3.5c1.2-0.2,2.4,0.1,3.6,0.5c0.1,0.1,0.3-0.3,0.3-0.4
			c-1.5-2.1-1.9-4.4-0.9-6.8c1.2-2.9,3.3-5,6.5-5.6c4-0.8,7.9,1.8,8.8,5.8c0.1,0.3,0.7-0.1,1-0.4c2.7-2.6,6.2-2.9,9.3-0.8
			c1.6,1.1,2.3,2.8,2.5,4.7c0.1,1.3-0.1,2.5-0.5,3.7C34.4,157.2,37.4,156.6,39,156.9z"/>
		<path class="st2" d="M166,74.3l0-1.2c0-3,0-6.1,0-9.1l0-1.2"/>
		<path class="st2" d="M147.6,74.3v-1.2c0-3,0-6.1,0-9.1l0-1.2"/>
		<path class="st2" d="M156.7,56.6c3.3,0,6.6,0,9.8,0c1.3,0,2.3,0.7,2.8,1.9c0.5,1.2,0.3,2.3-0.6,3.3c-0.7,0.7-1.5,1-2.5,1
			c-5.2,0-10.4,0-15.5,0c-1.2,0-2.3,0-3.5,0c-2,0-3.4-1.3-3.4-3.1c0-1.8,1.4-3.1,3.4-3.1C150.3,56.5,153.5,56.5,156.7,56.6
			C156.7,56.5,156.7,56.5,156.7,56.6z"/>
		<path class="st2" d="M156.5,52c-2.1-1.2-3.6-2.9-4.3-5.2c-0.7-2.4,0-4.4,2-5.8c0.8-0.5,1.6-1,2.2-1.7c0.8-0.8,1.3-1.8,1.3-3
			c0-0.9-0.4-1.6-1.2-2c-0.6-0.3-1.3-0.6-1.9-0.9c-2.9-1.1-2.3-4.4-0.7-5.6c1.7-1.3,3.5-1.5,5.5-1c3.8,0.9,6.8,4.5,6.7,8.1
			c-0.1,3-1.6,5.2-3.8,7c-0.9,0.8-2,1.4-3.1,1.9c-0.3,0.2-0.6,0.3-0.9,0.5c-2.8,1.7-3.4,4.1-1.9,7c0.1,0.2,0.2,0.3,0.2,0.5
			C156.6,51.9,156.6,51.9,156.5,52z"/>
	</g>
</g>

</svg>
