<?xml version="1.0" encoding="utf-8"?>
<!-- Generator: Adobe Illustrator 23.0.6, SVG Export Plug-In . SVG Version: 6.00 Build 0)  -->
<svg version="1.1" xmlns="http://www.w3.org/2000/svg" alt ="howto4" xmlns:xlink="http://www.w3.org/1999/xlink" x="0px" y="0px"
	 viewBox="0 0 200 166.7" style="enable-background:new 0 0 200 166.7;" xml:space="preserve">
<style type="text/css">
	.st2{fill:none;stroke:#342e37;stroke-miterlimit:10;stroke-width:1.4;opacity:1;}
</style>
<g id="Layer_4">
	<g>
		<path class="st2" d="M109.8,141.5c-1.6,2.9-4.9,5.4-8.2,6c-2.4,0.4-4.7,0-7-0.9c-3.2-1.2-45.5-38-54.7-45.7
			c-2.6-2.2-6.6-2.7-8.1-3.9 M124.9,133.9c1.1,2.2,0,4.3,0,4.3c-0.7,1.4-2.3,3-3.3,3.8c-2.3,1.9-5.2,1.7-6.1,1.6
			c-3.7-0.3-6.1-2.5-6.8-3.2c-6.9-6.5-13.7-13-20.6-19.5 M141.2,127.6c-0.3,1.4-0.7,2.7-1.3,3.9c-1.7,3.3-5.7,5.1-9.5,4.7
			c-2.7-0.3-4.6-1.6-5.5-2.4c-8.3-8.3-16.6-16.6-24.9-24.9 M149.8,52.7c-2.1,0.4-5.5,0.4-7.5,0c-4.9-1-9.5-2.9-14.1-4.9
			c-4.4-1.9-8.6-4.1-13-5.9c-3.7-1.5-7.4-2.6-11.4-2.8c-5.1-0.2-9.6,1.4-13.9,4c-4.5,2.7-8.4,6.1-12,9.9c-3.3,3.4-6.4,7-8.7,11.2
			c-1.5,2.7-2.6,5.5-2.7,7.9c0,5.1,2.5,7.7,7.2,8.2c0.5,0.1,1.1,0.1,1.6,0c6.5-0.3,12.1-2.5,16.7-7.1c1.1-1.1,2.3-2,3.8-2.6
			c2.9-1.1,5.9-2.2,8.8-3.2c0.3-0.1,0.7-0.1,1,0.2c3.4,2.7,6.7,5.4,10.1,8.1c9.5,7.7,18.8,15.6,27.4,24.3c3.6,3.7,7.2,7.5,10,11.9
			l1.4,2.3c1.9,3.4,1.4,6.6-0.4,9.8c-0.6,1-1.3,1.8-2.1,2.4c-2.5,1.8-5.5,1.6-6.9,1.4c-4.9-0.5-7.1-3.7-8.1-4.9
			c-7.9-8.3-17-16.6-24.9-24.9 M45.9,45.8c8.4,0,18.1,0.1,26.5,0.1h13.1 M195.1,76.2c0-11.9,0-23.9,0-35.8c0-0.6-0.2-0.8-0.8-0.8
			c-1.2,0-2.4-0.1-3.5-0.1c-8.3-0.1-16.5,0.6-24.6,2.3c-6.1,1.3-12.1,3.1-17.8,5.8c-0.6,0.3-0.7,0.5-0.5,1.1c1.1,3,2.2,5.9,3.3,8.9
			c6.7,18.1,13.4,36.2,20,54.3c0.2,0.5,0.7,0.9,1.3,0.9c7.2,0,14.3,0,21.5,0c0.6,0,1-0.5,1-1.1C195.1,99.8,195.1,88,195.1,76.2z
			 M5.5,67.6c0,11.9,0,23.9,0,35.8c0,0.4,0.4,0.8,0.8,0.8c7.6,0,15.1,0,22.7,0c0.5,0,0.9-0.3,1-0.7c4.4-14.1,8.7-28.2,12.3-42.5
			c1.7-6.6,3.3-13.1,4.3-19.8c0.1-0.5-0.1-0.7-0.5-1c-1.2-0.7-2.5-1.4-3.8-1.9c-7.4-3-15.2-4.5-23-5.7c-4.3-0.7-8.7-1.1-13-1.6
			c-0.6-0.1-0.9,0-0.9,0.7C5.5,43.7,5.5,55.7,5.5,67.6z"/>
		<line class="st2" x1="168.2" y1="103.6" x2="153.1" y2="112.2"/>
	</g>
</g>
</svg>
