<?xml version="1.0" encoding="utf-8"?>
<!-- Generator: Adobe Illustrator 23.0.6, SVG Export Plug-In . SVG Version: 6.00 Build 0)  -->
<svg version="1.1" alt ="howto1" id="Layer_1" xmlns="http://www.w3.org/2000/svg" xmlns:xlink="http://www.w3.org/1999/xlink" x="0px" y="0px"
	 viewBox="0 0 200 166.7" style="enable-background:new 0 0 200 166.7;" xml:space="preserve">
<style type="text/css">
.st0{fill:none;stroke:#342e37;stroke-miterlimit:10;stroke-width:1.4;opacity:0.8;}
</style>
<g>
	<path class="st0" d="M137.1,158.3c2,0,4.2-0.2,6.4-0.6c11.4-2.1,18.4-9.1,21.9-19.8c1.3-3.8,0.5-7.4-2.2-10.4
		c-1.5-1.7-3.3-2.9-5.4-3.9c-1.6-0.7-3.1-1.7-4.5-2.6c-6.4-4.3-12.8-8.7-19.2-13c-2.5-1.7-5.1-1.9-7.9-0.8c-1.9,0.8-3.5,2-4.9,3.4
		c-3.5,3.3-6.1,7.2-8.4,11.3c-0.5,0.9-0.5,0.9-1.3,0.4c-13.1-7.8-24.9-17.2-35.2-28.4c-6.5-7.1-12.2-14.8-16.6-23.4
		c-0.2-0.5-0.2-0.6,0.3-0.9c2.5-1.3,4.8-2.8,7.1-4.5c2.7-2,5.2-4.3,7-7.2c2.1-3.4,2.3-6.7-0.1-10.1c-3.9-5.6-7.7-11.3-11.6-17
		c-1.5-2.2-3-4.3-4-6.7c-0.6-1.4-1.5-2.6-2.5-3.7c-2.9-3.3-6.6-4.6-10.9-3.7c-2.3,0.5-4.4,1.5-6.4,2.6c-5,2.8-9.1,6.6-11.6,11.8
		c-2,4.1-2.9,8.5-3,13.1c-0.1,4.4,0.4,8.7,1.3,13c1.3,6.2,3.3,12.2,5.8,18c1.1,2.7,2.2,5.5,3.7,8c5.6,9.6,12.1,18.7,19,27.4
		c4.6,5.8,9.6,11.3,15.2,16.2c6.6,5.8,13.7,10.9,21.2,15.6c3.3,2.1,6.6,4.2,10.1,5.8c5.7,2.7,11.6,5.1,17.7,6.9
		C124,156.9,130.3,158.2,137.1,158.3z M136.4,11.3c-13,0-26,0-38.9,0c-0.8,0-0.8,0-0.8,0.8c0,15.3,0,30.6,0,45.9
		c0,0.8,0,0.8,0.8,0.8c4.4,0,8.7,0,13.1,0c0.4,0,0.7,0.1,0.9,0.5c2.1,3.8,4.2,7.7,6.3,11.5c0.8,1.5,1.6,3,2.5,4.5
		c0.1,0.2,0.1,0.5,0.4,0.5c0.3,0,0.3-0.3,0.4-0.5c0.1-0.1,0.1-0.2,0.1-0.3c2.7-5.4,5.5-10.7,8.2-16.1c0.2-0.5,0.5-0.6,1-0.6
		c15,0,30,0,45,0c0.8,0,0.8,0,0.8-0.8c0-15.1,0-30.2,0-45.4c0-0.9,0-0.9-0.9-0.9C162.4,11.3,149.4,11.3,136.4,11.3z"/>
	<path class="st0" d="M137.1,158.3c-6.8-0.1-13.1-1.4-19.3-3.2c-6.1-1.8-11.9-4.2-17.7-6.9c-3.5-1.6-6.8-3.7-10.1-5.8
		c-7.4-4.7-14.5-9.8-21.2-15.6c-5.6-4.9-10.6-10.4-15.2-16.2c-6.9-8.7-13.4-17.8-19-27.4c-1.5-2.6-2.5-5.3-3.7-8
		c-2.4-5.8-4.4-11.8-5.8-18c-0.9-4.3-1.5-8.6-1.3-13c0.1-4.5,1-8.9,3-13.1c2.6-5.2,6.6-9,11.6-11.8c2-1.1,4.1-2.1,6.4-2.6
		c4.4-0.9,8,0.3,10.9,3.7c1,1.1,1.8,2.3,2.5,3.7c1.1,2.4,2.6,4.6,4,6.7c3.8,5.7,7.7,11.4,11.6,17c2.4,3.4,2.2,6.7,0.1,10.1
		c-1.8,2.9-4.3,5.1-7,7.2c-2.2,1.7-4.6,3.2-7.1,4.5c-0.5,0.2-0.5,0.4-0.3,0.9c4.4,8.6,10.1,16.3,16.6,23.4
		c10.3,11.2,22.1,20.6,35.2,28.4c0.8,0.5,0.8,0.5,1.3-0.4c2.3-4.1,5-8,8.4-11.3c1.5-1.4,3.1-2.6,4.9-3.4c2.8-1.1,5.4-0.9,7.9,0.8
		c6.4,4.4,12.8,8.7,19.2,13c1.4,1,2.9,1.9,4.5,2.6c2,0.9,3.9,2.2,5.4,3.9c2.7,3.1,3.5,6.7,2.2,10.4c-3.6,10.7-10.5,17.7-21.9,19.8
		C141.3,158.1,139,158.2,137.1,158.3z"/>
	<path class="st0" d="M136.4,11.3c13,0,26,0,38.9,0c0.9,0,0.9,0,0.9,0.9c0,15.1,0,30.2,0,45.4c0,0.8,0,0.8-0.8,0.8c-15,0-30,0-45,0
		c-0.5,0-0.8,0.2-1,0.6c-2.7,5.4-5.4,10.7-8.2,16.1c0,0.1-0.1,0.2-0.1,0.3c-0.1,0.2-0.1,0.5-0.4,0.5c-0.3,0-0.3-0.3-0.4-0.5
		c-0.8-1.5-1.6-3-2.5-4.5c-2.1-3.8-4.2-7.7-6.3-11.5c-0.2-0.4-0.4-0.5-0.9-0.5c-4.4,0-8.7,0-13.1,0c-0.8,0-0.8,0-0.8-0.8
		c0-15.3,0-30.6,0-45.9c0-0.8,0-0.8,0.8-0.8C110.5,11.3,123.4,11.3,136.4,11.3z"/>
	<line class="st0" x1="161.8" y1="41.2" x2="112.4" y2="41.2"/>
	<line class="st0" x1="161.8" y1="27.5" x2="112.4" y2="27.5"/>
</g>
</svg>
