<?xml version="1.0" encoding="utf-8"?>
<!-- Generator: Adobe Illustrator 23.0.6, SVG Export Plug-In . SVG Version: 6.00 Build 0)  -->
<svg version="1.1" id="Layer_1" alt ="howto2" xmlns="http://www.w3.org/2000/svg" xmlns:xlink="http://www.w3.org/1999/xlink" x="0px" y="0px"
	 viewBox="0 0 200 166.7" style="enable-background:new 0 0 200 166.7;" xml:space="preserve">
<style type="text/css">
.st0{fill:none;stroke:#342e37;stroke-miterlimit:10;stroke-width:1.4;opacity:0.8;}
</style>
<g>
	<path class="st0" d="M53.8,163c0.6,0,1.1,0,1.7,0c5.6,0,11.3,0,16.9,0c1,0,1,0,1-1c0-6.8,0-13.7,0-20.5c0-0.7,0.2-0.8,0.8-0.8
		c3.6,0,7.2,0,10.9,0c0.5,0,0.8-0.2,0.7-0.7c0-1.1,0-2.1,0-3.2c-0.1-8.8,0.2-17.6-0.1-26.4c-0.1-2.9-0.7-5.7-1.9-8.4
		c-2.4-5-6.2-7.8-11.9-7.7c-6.4,0-12.8,0-19.2,0c-5.8,0-11.6,0-17.5,0c-0.7,0-1.4,0.1-2.1,0.2c-4.4,0.9-7.4,3.6-9.2,7.6
		c-1.6,3.5-2,7.2-2,10.9c0,9,0,18,0,26.9c0,0.7,0.2,0.8,0.8,0.8c3.6,0,7.2,0,10.8,0c0.6,0,0.8,0.2,0.8,0.8c0,6.8,0,13.7,0,20.5
		c0,1,0,1,0.9,1C41.4,163,47.6,163,53.8,163z M146.2,163c0.6,0,1.2,0,1.7,0c5.6,0,11.3,0,16.9,0c0.9,0,0.9,0,0.9-0.9
		c0-6.9,0-13.7,0-20.6c0-0.6,0.1-0.8,0.8-0.8c3.6,0,7.2,0,10.9,0c0.5,0,0.8,0,0.8-0.7c0-9.4,0-18.8-0.1-28.3c0-3.1-0.5-6.1-1.7-9.1
		c-2-5.1-6.3-8.6-12.4-8.5c-6.3,0.1-12.7,0-19,0c-5.8,0-11.6,0-17.5,0c-0.7,0-1.4,0.1-2.1,0.2c-4.4,0.9-7.3,3.6-9.2,7.6
		c-1.6,3.5-2,7.3-2,11.1c0,8.9,0,17.8,0,26.7c0,0.7,0.2,0.9,0.9,0.9c3.6,0,7.2,0,10.7,0c0.7,0,0.8,0.2,0.8,0.9c0,6.9,0,13.7,0,20.6
		c0,0.6,0.2,0.8,0.8,0.8C133.7,163,140,163,146.2,163z M104.6,3.7c-8.1,0-16.2,0-24.3,0c-0.5,0-0.9,0.1-0.9,0.8
		c0,10.3,0,20.6,0,30.9c0,0.6,0.2,0.8,0.8,0.8c1.1,0,2.1,0,3.2,0c0.6,0,0.7,0.2,0.7,0.7c0,3.7,0,7.3,0,11c0,0.3-0.2,0.7,0.2,0.9
		c0.4,0.2,0.6-0.2,0.8-0.4c4.4-3.9,8.8-7.8,13.2-11.8c0.4-0.3,0.7-0.5,1.2-0.5c9.7,0,19.5,0,29.2,0c0.9,0,0.9,0,0.9-0.9
		c0-10.1,0-20.3,0-30.4c0-1,0-1-1-1C120.7,3.7,112.7,3.7,104.6,3.7z M54.3,41.9c-12.2,0.2-22,10.1-21.6,22.4
		c0.4,12.5,10.6,21.9,22.9,21.4C67.6,85.2,77,74.9,76.5,63C76,50.8,66,41.8,54.3,41.9z M147.1,41.9c-11.9,0-21.9,9.3-22,21.8
		c-0.1,12.4,9.8,21.9,21.7,22c12,0.2,22-9.5,22.1-21.7C169,51.9,159.4,42,147.1,41.9z"/>
	<path class="st0" d="M53.8,163c-6.2,0-12.4,0-18.6,0c-0.9,0-0.9,0-0.9-1c0-6.8,0-13.7,0-20.5c0-0.6-0.1-0.8-0.8-0.8
		c-3.6,0-7.2,0-10.8,0c-0.6,0-0.8-0.2-0.8-0.8c0-9,0-18,0-26.9c0-3.8,0.4-7.5,2-10.9c1.8-4,4.8-6.7,9.2-7.6c0.7-0.1,1.4-0.2,2.1-0.2
		c5.8,0,11.6,0,17.5,0c6.4,0,12.8,0,19.2,0c5.7,0,9.6,2.7,11.9,7.7c1.2,2.6,1.8,5.5,1.9,8.4c0.3,8.8,0.1,17.6,0.1,26.4
		c0,1.1,0,2.1,0,3.2c0,0.6-0.2,0.7-0.7,0.7c-3.6,0-7.2,0-10.9,0c-0.6,0-0.8,0.1-0.8,0.8c0,6.8,0,13.7,0,20.5c0,1,0,1-1,1
		c-5.6,0-11.3,0-16.9,0C54.9,163,54.3,163,53.8,163z"/>
	<path class="st0" d="M146.2,163c-6.2,0-12.5,0-18.7,0c-0.7,0-0.8-0.2-0.8-0.8c0-6.9,0-13.7,0-20.6c0-0.6-0.1-0.9-0.8-0.9
		c-3.6,0-7.2,0-10.7,0c-0.7,0-0.9-0.2-0.9-0.9c0-8.9,0-17.8,0-26.7c0-3.8,0.4-7.5,2-11.1c1.8-4,4.7-6.7,9.2-7.6
		c0.7-0.1,1.4-0.2,2.1-0.2c5.8,0,11.6,0,17.5,0c6.3,0,12.7,0.1,19,0c6.1-0.1,10.4,3.4,12.4,8.5c1.1,2.9,1.7,6,1.7,9.1
		c0.1,9.4,0,18.8,0.1,28.3c0,0.6-0.3,0.7-0.8,0.7c-3.6,0-7.2,0-10.9,0c-0.6,0-0.8,0.2-0.8,0.8c0,6.9,0,13.7,0,20.6
		c0,0.9,0,0.9-0.9,0.9c-5.6,0-11.3,0-16.9,0C147.3,163,146.8,163,146.2,163z"/>
	<path class="st0" d="M104.6,3.7c8,0,16.1,0,24.1,0c1,0,1,0,1,1c0,10.1,0,20.3,0,30.4c0,0.9,0,0.9-0.9,0.9c-9.7,0-19.5,0-29.2,0
		c-0.5,0-0.9,0.1-1.2,0.5c-4.4,3.9-8.8,7.9-13.2,11.8c-0.2,0.2-0.4,0.6-0.8,0.4c-0.3-0.2-0.2-0.6-0.2-0.9c0-3.7,0-7.3,0-11
		c0-0.5-0.1-0.7-0.7-0.7c-1.1,0-2.1,0-3.2,0c-0.6,0-0.8-0.2-0.8-0.8c0-10.3,0-20.6,0-30.9c0-0.7,0.3-0.8,0.9-0.8
		C88.4,3.7,96.5,3.7,104.6,3.7z"/>
	<path class="st0" d="M54.3,41.9C66,41.8,76,50.8,76.5,63c0.5,11.9-8.9,22.1-20.8,22.7c-12.3,0.6-22.6-8.8-22.9-21.4
		C32.4,52,42.2,42.1,54.3,41.9z"/>
	<path class="st0" d="M147.1,41.9c12.3,0.2,21.9,10,21.8,22.1c-0.1,12.2-10.1,21.9-22.1,21.7c-11.8-0.2-21.8-9.6-21.7-22
		C125.2,51.2,135.2,41.9,147.1,41.9z"/>
</g>
</svg>
