<?xml version="1.0" encoding="utf-8"?>
<!-- Generator: Adobe Illustrator 23.0.6, SVG Export Plug-In . SVG Version: 6.00 Build 0)  -->
<svg version="1.1" xmlns="http://www.w3.org/2000/svg"  alt ="Værdier" xmlns:xlink="http://www.w3.org/1999/xlink" x="0px" y="0px"
	 viewBox="0 0 200 166.7" style="enable-background:new 0 0 200 166.7;" xml:space="preserve">
<style type="text/css">
	.st6{fill:none;stroke:#342e37;stroke-miterlimit:10;stroke-width:1.3;}
</style>
<g id="Layer_7">
	<g>
		<path class="st6" d="M126.2,166.7l-0.6-2.6c-1.1-3.7-2.3-7.4-3.5-11.1c-0.8-2.4-1.6-4.9-2.5-7.3c-0.7-1.7-1.3-3.4-2.5-4.9
			c-1-1.3-1.9-1.6-3.4-1c-1.3,0.5-2.5,1.3-3.8,1.8c-3.8,1.4-7.8,2.2-11.9,2.4c-4.1,0.2-8.2-0.5-12.1-1.6c-2.1-0.6-4.1-1.5-6.1-2.5
			c-1.6-0.8-2.5-0.6-3.7,0.8c-0.5,0.6-1,1.3-1.3,2c-1.2,2.6-2.2,5.2-3,7.9c-0.5,2-1.4,3.8-1.9,5.7c-0.4,1.5-1,2.9-1.4,4.4
			c-0.5,1.5-1.1,3.1-1.3,4.7l-0.3,1.3 M0,166.7c0.3,0,0.5,0,0.8,0c33.2,0,66.4,0,99.5,0c9,0,17.9,0,26.9,0c24.3,0,48.6,0,72.8,0
			 M63.2,108.1c0.1,18,14.9,32.4,33.1,32.2c18.4-0.2,32.7-15.2,32.5-33.1c-0.2-18.6-15.2-32.6-32.9-32.5
			C77.3,74.7,62.7,89.9,63.2,108.1z M159.1,82.3c0-1.6,0-3.3,0-4.9c0-0.6-0.2-0.9-0.6-1.3c-1.5-1.3-2.5-3-3.2-4.8
			c-0.4-0.9-0.6-1.8-0.9-2.6c-0.6-1.7-1.4-3.2-2.1-4.8c-0.2-0.3-0.3-0.7-0.3-1.1c-0.1-0.7,0.8-1.3,1.5-0.9c0.8,0.5,1.4,1.2,2,1.9
			c0.6,0.6,1,1.3,1.6,2c0.2,0.2,0.4,0.5,0.7,0.4c0.4-0.1,0.2-0.5,0.2-0.7c0-1,0-2.1,0-3.1c0-1.9,0-3.8,0-5.7c0-0.7,0.2-1.6,1.1-1.8
			c0,0,2.5-0.6,2.5,2.1l0-1.5c0-1.4,0.1-2.5,0.3-3.1c0.3-0.9,0.8-1.1,1.2-1.2c1.4-0.4,2.6,0.4,2.6,1.6l0.1,2.1c0-1.2,0.9-1.7,2-1.7
			c1.1,0,1.8,0.7,1.8,1.7l0.1,2.9c0-1.1,1.2-1.9,2.2-1.5c0.8,0.2,1.2,0.8,1.2,1.8c0,3.7,0,7.4,0,11.2c0,1.3,0,1.9-0.3,4.4
			c-0.4,1.3-0.6,2.1-2.1,2.7c-0.2,0.1-0.7,0.1-0.7,0.7c0.1,1.8,0,3.6,0.1,5.4 M176.7,73.3l2.3,0c1.7,0,2.4-0.6,2.4-2.4
			c0-6.4,0-12.7,0-19.1c0-1.8-0.6-2.4-2.4-2.4c-4.6,0-9.2,0-13.7,0c-4.6,0-9.2,0-13.8,0c-2.3,0-4.3,1.6-4.3,4.2c0,5.5,0,11.1,0,16.6
			c0,1,0.3,2,1,2.8c0.9,1,2,1.3,3.2,1.3c1.4,0,2.8,0,4.2,0h1.3 M183.3,110.6l1.4-3.2c0.7-1.5,1.4-2.9,2-4.4c0.7-1.6,1.5-3.1,2.2-4.8
			 M177.5,108.9c-2.8-0.7-5.7-1.5-8.5-2.3c-0.5-0.1-1-0.3-1.6-0.2c-2.1,0.3-3.4,3-3.4,4.7c0,0.2,0.1,0.4,0.4,0.4
			c0.5,0.2,0.9,0.4,1.4,0.5c0.6,0.1,0.6,0.4,0.6,0.8c0,1.5-0.3,2.9-1,4.3c-1.8,3.5-4.7,6-8,8.1c-0.7,0.4-0.8,0.8-0.1,1.2
			c1,0.6,2.1,1.2,3.1,1.7c0.4,0.2,0.9,0.3,1.3,0c1.4-1.1,2.8-2.3,4.1-3.6c0.7-0.7,1.4-1.4,2-2.1c-0.4,1.2-1.1,2.3-1.8,3.4
			c-0.7,1.1-1.5,2.1-2.4,3.1c-0.2,0.2-0.6,0.6,0,0.8c0.8,0.3,1.5,0.7,2.3,0.9c0.5,0.2,1,0.1,1.4-0.5c0.2-0.4,0.6-0.9,1.2-1.1
			c0,0.2,0,0.3-0.1,0.4c-0.2,0.3-0.3,0.6-0.5,0.9c-0.6,0.8-0.5,0.8,0.3,1.1c3.5,1.4,7.3,2,11,3c1.7,0.4,3.5,0.6,5.2,0.8
			c1.6,0.3,3.3,0.4,5,0.5c0.8,0.1,0.9,0,0.6-0.8c-1-2.6-1.4-5.3-1.4-8c0-2.5,0.4-4.9,1.1-7.2c0.1-0.4,0.3-0.7,0.8-0.4
			c0.5,0.3,1.1,0.3,1.6,0.6c0.3,0.1,0.5,0,0.5-0.2c0.5-1.5,1-3,0.7-4.7c-0.2-0.9-0.7-1.6-1.7-1.9c-2.6-0.8-5.3-1.6-8-2.4
			L177.5,108.9z M183.7,98.3c-0.1,0.1-0.1,0.3-0.2,0.4l-5.1,10.5 M28.4,120.2v-10.7c0-0.2-0.1-0.5,0.2-0.7c0.3-0.1,0.4,0.2,0.5,0.3
			c0.5,0.3,1,0.7,1.4,0c1-1.4,1.9-2.8,3-4.2c0.5-0.7,0.4-0.9-0.2-1.4c-2.1-1.7-4.1-3.4-6.1-5.2c-0.8-0.7-1.7-0.7-2.5,0.1
			c-0.5,0.5-0.9,1-1.4,1.4c-1.1,0.8-2.3,1.6-3.8,1.1c-1.4-0.5-2.4-1.5-3.4-2.6c-0.6-0.7-1.4-0.8-2.2-0.3c-0.9,0.5-1.6,1.3-2.4,1.9
			c-1.5,1.2-2.9,2.4-4.3,3.6c-0.3,0.3-0.5,0.6-0.2,1c1.1,1.5,2.2,3,3.2,4.5c0.3,0.4,0.6,0.5,1,0.1c0.1-0.1,0.3-0.2,0.4-0.3
			c0.2-0.1,0.4-0.3,0.6-0.2c0.2,0.1,0.1,0.4,0.1,0.6c0,3.3,0,6.5,0,9.8 M11.8,119.9c-2,0-4,0-6,0c-1.1,0-2.1,0.4-2.5,1.4
			c-0.5,1-0.5,2.1,0.2,3.1c0.6,0.8,1.4,1.1,2.4,1.1l29.4,0c1.2-0.1,2.3-1,2.6-2.2c0.5-1.7-0.9-3.4-2.7-3.4c-2,0-4.1,0-6.1,0
			L11.8,119.9z M6.5,125.5l0.7,3.8c0.2,1.5,0.6,3,0.9,4.4c0.4,1.7,0.8,2.2,2.6,2.2c3.3,0,6.6,0,10,0c3.4,0,6.8,0,10.2,0
			c1.5,0,2.2-0.6,2.5-2.1l1.7-8.4 M92.2,21.7l0,0.7c0,0.3,0,0.6-0.1,0.9c0,0.6-0.1,1.3-0.2,1.9c-0.3,1.3-0.7,2.6-1.9,3.5
			c-1.3,1-2.9,1.4-4.4,2c-2,0.7-3.9,1.5-5.8,2.6c-2,1.2-3.7,2.8-4.4,5.1c-0.5,1.5-0.6,3.1-0.3,4.7c0.4,1.9,1.1,3.5,2.5,4.8
			c1.7,1.5,3.6,2.1,5.8,2.1c0.2,0,0.4,0,0.6,0l1.6,0 M85.7,46.6l-0.9,0.1c-0.8,0.1-1.6,0-2.4-0.1c-1.2-0.2-2.3-0.6-3-1.6
			c-1.7-2.3-1.8-6.4,1.4-8.6c1.3-0.8,2.6-1.4,4-2c1.3-0.5,2.6-1.1,3.9-1.6c1.4-0.5,2.8-1.1,3.9-2.2c2.4-2.2,2.7-5.2,2.9-8.2v-0.8
			 M41.8,53.5c1.4,0,2.8-0.1,4.2-0.2c1.1-0.1,1.6-0.6,1.7-1.7c0-0.4,0-0.9,0-1.3c0.1-1-0.6-2-1.9-2c-1.7,0-3.3-0.1-5-0.2
			c-2-0.1-4-0.2-6-0.2c-0.8,0-1.6,0.1-2,0.8c-0.3,0.5-0.7,0.6-1.2,0.6c-1.1,0-1.5,0.4-1.5,1.5c0,1.8-0.5,2.4,2.2,2.3l5,0.3
			L41.8,53.5z M37.3,53.4l0,3.5c-0.5,2.5-0.9,5-1.8,7.4c-0.7,1.8-1.6,3.4-2.7,5c-0.5,0.8-1,1.5-1.2,2.4c-0.6,3.2-0.5,6.3-0.5,9.5
			c0,1.4,0.8,2.1,2.1,2c2.1,0,4.2,0,6.3,0c2.2,0,4.4,0,6.6,0c1.5,0,2-0.8,2.1-2c0.1-1.8,0.1-3.5,0-5.3c-0.1-2.5-0.5-5-2.1-7.1
			c-1.1-1.4-1.9-3.1-2.5-4.8c0,0-2.4-9.4-2-10.6 M33.4,53.2c-0.4,2.1-0.9,4.3-0.9,4.3c-0.5,2.1-1.3,4.1-2.5,5.9
			c-0.2,0.3-0.5,0.7-0.2,1c0.3,0.3,0.6-0.1,0.9-0.2c1-0.6,1.8-1.5,2.4-2.4c0,0,2.3-4.8,2.6-8.3 M111,51.3l1.1,0c1,0,2.1,0,3.1,0
			c0.4,0,0.6-0.1,0.8-0.5c0.9-3.5,1.5-6.9,0.4-10.5c-0.9-2.7-2.7-4.3-5.4-5c-2.2-0.6-4.4-0.5-6.6-0.3c-4.8,0.4-9.4,1.8-13.6,4.3
			c-1.7,1-3.3,2.2-4.7,3.6c-0.3,0.3-0.4,0.6-0.4,1c0,1.1,0,2.2,0,3.3c0,1,0,2.1,0,3.1c0,1,0,1,1,1c3.7,0,7.3,0,11,0h1.3 M135.2,76.1
			c-0.1-4.8-3.7-8.4-8.5-8.4c-4.2,0-9.1,3.1-8.5,9.7c0.3,3.2,3.6,7.2,8.5,7.2C131.5,84.5,135.2,80.7,135.2,76.1z M93.6,21.7
			c2.8,0,5.5,0,8.3,0c1.4,0,2.3-0.7,2.5-2.1c0.1-0.4,0-0.9,0-1.3c0-1.6-0.9-2.5-2.5-2.6c-5.6,0-11.2,0-16.8,0
			c-0.6,0-1.2,0.1-1.7,0.5c-0.6,0.6-0.8,1.4-0.8,2.2c0,2.5,0.7,3.2,3.2,3.2C88.4,21.7,91,21.7,93.6,21.7z M154.3,131.7
			c-1.3,0-2.8,1.3-2.7,2.6c0.1,1.6,1.1,2.6,2.8,2.6c1.6,0,2.5-1,2.6-2.6C157,133,156,131.8,154.3,131.7z M28.2,53.3
			c-2.5,1.2-4.8,2.8-7.2,4.2 M28.4,48.9c-2.4-1.4-4.8-2.7-7.1-4.1 M28,51.1c-2.8,0-5.7,0-8.5,0 M156.7,130.7c0,0.8,0.8,1.9,1.5,1.9
			c1.1,0.1,2.1-0.8,2.1-1.8c0-0.9-0.8-1.8-1.7-1.8C157.6,129,156.7,129.7,156.7,130.7z M159.1,135c0,0.9,0.6,1.6,1.3,1.6
			c0.9,0,1.7-0.7,1.7-1.6c0-0.9-0.6-1.5-1.5-1.5C159.7,133.5,159.1,134.1,159.1,135z"/>
		<path class="st6" d="M85.9,142.5c-0.2,0.4-0.3,1.3-0.3,1.3c0,5.7,4.8,10.4,10.6,10.4c5.6,0,10.4-4.5,10.5-10c0,0,0-1.2-0.1-1.5"/>
		<path class="st6" d="M88.9,143.2c-0.2,0.4,0,1.2,0,1.2c0.5,3.6,2.9,6.1,6.4,6.6c4,0.6,7.8-2.2,8.3-6.2c0,0,0-1.3-0.1-1.6"/>
		<path class="st6" d="M64.1,115.3l1.2-0.3c1.8-0.4,3.6-0.8,5.4-1.3c15.1-4.4,28.7-11.7,41-21.5c1.2-1,1.2-1,2.3,0.1
			c4.6,4.3,8.7,8.9,12.1,14.2c0.7,1,1.3,2.1,1.9,3.2l0.6,1.2"/>
		<path class="st6" d="M172.6,74.1h1.7c0,0,3.4-0.2,3.4-2.6s0-5.7,0-5.7c0.1-3.6-0.2-7.7-0.2-11.3c0-1.8-0.1-2.5-0.9-3.5
			c-0.7-0.9-1.7-1.5-2.9-1.6c-0.3,0-0.7,0-1.1,0"/>
		<path class="st6" d="M184.2,122.6c0.5-1.5,0.7-2.9,0.8-4.4c0-0.2-0.1-0.6,0.4-0.5c0.3,0.1,0.6,0.1,0.5,0.6c-0.3,1.4-0.7,2.7-1.3,4
			C184.5,122.5,184.5,122.6,184.2,122.6z"/>
		<path class="st6" d="M21.4,119.9l0.1-0.9c0.2-0.9,1.1-1.6,2.1-1.5c0.9,0.1,1.7,0.9,1.7,1.8l0,0.6"/>
		<path class="st6" d="M105,43.6c3.4,0,6.2,2.7,6.2,6.2c0,3.4-2.7,6.1-6.1,6.1c-3.4,0-6.2-2.7-6.2-6.2
			C98.9,46.3,101.6,43.6,105,43.6z"/>
		<path class="st6" d="M80.7,122.3c3.9,3.6,8.4,5.7,13.7,6.2c5.5,0.5,10.5-0.7,14.9-4.2c0.7-0.6,1.4-1.2,2-2"/>
		<path class="st6" d="M22.9,105.9c1.7,0,3,1.3,2.9,3c0,1.6-1.4,2.9-3,2.9c-1.6,0-2.9-1.3-2.9-3C20,107.1,21.3,105.8,22.9,105.9z"/>
		<path class="st6" d="M20,115c0,1.3-1.1,2.4-2.4,2.4c-1.3,0-2.4-1.1-2.4-2.4c0-1.3,1.1-2.4,2.4-2.4C19,112.6,20,113.6,20,115z"/>
		<path class="st6" d="M35.2,75.1c0-1,0-1.9,0-2.9c0-0.9,0.4-1.3,1.3-1.4c1.9,0,3.7,0,5.6,0c0.9,0,1.3,0.5,1.3,1.4c0,2,0,3.9,0,5.9
			c0,0.9-0.4,1.3-1.3,1.3c-1.9,0-3.8,0-5.7,0c-0.8,0-1.3-0.5-1.3-1.3C35.1,77.1,35.2,76.1,35.2,75.1z"/>
	</g>
	<line class="st6" x1="32.4" y1="49.2" x2="32.2" y2="53.1"/>
	<line class="st6" x1="95.4" y1="23.3" x2="92.1" y2="23.3"/>
	<path class="st6" d="M161.5,65.4c0-0.1,0-8.3,0-8.3"/>
	<polyline class="st6" points="165.6,65.4 165.7,57.8 165.7,55 	"/>
	<path class="st6" d="M165.7,55"/>
	<line class="st6" x1="169.5" y1="65.4" x2="169.6" y2="57.9"/>
	<line class="st6" x1="166.1" y1="112.2" x2="190.2" y2="119.2"/>
</g>
</svg>
