<?xml version="1.0" encoding="utf-8"?>
<!-- Generator: Adobe Illustrator 23.0.6, SVG Export Plug-In . SVG Version: 6.00 Build 0)  -->
<svg version="1.1" id="Layer_1" xmlns="http://www.w3.org/2000/svg" alt ="Telefon" xmlns:xlink="http://www.w3.org/1999/xlink" x="0px" y="0px"
	 viewBox="0 0 200 200" style="enable-background:new 0 0 200 200;" xml:space="preserve">
<style type="text/css">
	.st0{fill:white;}
</style>
<g>
	<path class="st0" d="M129.7,182.9c-13.7,0-24-4-33.2-10.9c-8.4-6.3-15.2-14-21.4-22.3c-13.9-18.7-25.3-38.8-33-60.8
		c-2.8-8-4.6-16.1-4.9-24.6c-0.5-13.7,3.9-25.5,12.9-35.8c3.8-4.3,7.9-8.3,12.9-11.3c2-1.2,4.2-2.1,6.6-2.4c2.4-0.2,4.4,0.5,6.1,2.2
		c1.1,1.1,1.9,2.4,2.6,3.8c5.1,10,9.6,20.1,12.8,30.9c0.4,1.3,0.7,2.7,0.9,4.1c0.3,2.7-0.8,4.8-3.1,6.2c-2.1,1.3-4.5,2-6.8,2.7
		c-2.4,0.7-4.9,1.4-7.3,2.1c-4.3,1.3-6.2,4.1-5.4,8.5c1.1,5.9,3.1,11.6,5.6,17.1c6.9,15.8,15.6,30.5,27,43.6
		c1.7,1.9,3.5,3.8,5.4,5.5c3.8,3.2,7.1,3.1,10.7-0.3c2.5-2.4,5-4.8,7.6-7.1c1.2-1.1,2.4-2,3.9-2.7c2.3-1.1,4.4-1,6.4,0.5
		c1.4,1,2.6,2.2,3.8,3.5c7.3,7.9,13.6,16.6,19.5,25.5c0.6,0.9,1.2,2,1.6,3c1.6,3.5,1.1,6.4-1.6,9.2c-2,2.1-4.5,3.6-7.2,4.7
		C144.1,181,136.1,182.8,129.7,182.9z"/>
</g>
</svg>
