<?xml version="1.0" encoding="utf-8"?>
<!-- Generator: Adobe Illustrator 23.0.6, SVG Export Plug-In . SVG Version: 6.00 Build 0)  -->
<svg version="1.1" xmlns="http://www.w3.org/2000/svg" alt ="privat" xmlns:xlink="http://www.w3.org/1999/xlink" x="0px" y="0px"
	 viewBox="0 0 200 166.7" style="enable-background:new 0 0 200 166.7;" xml:space="preserve">
<style type="text/css">
	.st6{fill:none;stroke:#342e37;stroke-miterlimit:10;stroke-width:1.4;opacity:1;}
	.st0{fill:#2a4747;stroke-width:2;stroke:#2a4747;opacity:0.9;}
	.st1{fill:#2a4747;stroke-width:2;stroke:#2a4747;opacity:0.9;}
		.st3{fill:grey;stroke-width:0;stroke:#2a4747;opacity:0.9;}
</style>
<g id="Layer_5">
	<g>
		<path class="st6" d="M170.2,84.1c0,17,0,37.1,0,54.1 M43.1,140.3c0-17.7,0-39.5,0-57.2 M110.3,165.8c0-3.7,0-8.1,0-11.8
			c0-10.3,0-20.7,0-31c0-6-2-11-6.4-15.1c-9.7-8.9-25.7-5.5-30.9,6.6c-1.1,2.6-1.6,5.4-1.6,8.2c0,14,0,29,0,43"/>
		<path class="st6" d="M185.6,92.9c-1.1,0-2.1-0.4-3.2-1.1c-3.8-2.4-7.5-4.8-11.3-7.2c-5.8-3.7-11.7-7.4-17.5-11.1
			c-12.6-8-25.2-16-37.8-24c-0.6-0.4-1-0.5-1.7-0.1c-19.8,9.5-39.6,19-59.5,28.5c-11.3,5.4-22.7,10.8-34,16.3
			c-1.2,0.6-2.5,0.8-3.8,0.5c-1.6-0.4-2.9-1.3-3.3-3c-0.5-1.7,0-3.3,1.2-4.6c0.6-0.7,1.4-1.1,2.2-1.5c12.7-6.1,25.4-12.2,38.2-18.3
			c16-7.7,32-15.3,48-23c4-1.9,8.1-3.9,12.1-5.8c0.4-0.2,0.7-0.2,1.1,0.1c18.6,11.9,37.3,23.7,55.9,35.5c5.3,3.3,10.5,6.7,15.8,10.1
			c1.6,1,2.4,2.5,2.4,4.3C190.3,91.1,188.4,92.9,185.6,92.9z"/>
		<path class="st6" d="M146.9,155.2c-0.9-2.5-1.1-5.1-0.4-7.8c1-4,3.9-6.2,7.7-7.1c4.5-1.1,8,0.6,11,3.8c0.4,0.4,1.2-1.1,1.7-2.2
			c3-7,12-9.3,18.1-4.6c2.9,2.3,5.1,5.1,5.7,8.9c0.5,3-0.3,5.8-2.3,8.2c-0.1,0.2,0.3,0.6,0.5,0.5c1.7-0.7,3.4-1.1,5.3-0.9
			c3,0.3,4.8,2.1,5.3,5.1c0.4,2.4-0.4,4.2-2.6,5.4c-1.5,0.8-3.1,1.3-4.8,1.3c-7.2,0-14.4,0-21.5,0c-9.1,0-18.2,0-27.3,0
			c-1.5,0-2.9-0.2-4.3-0.7c-2.3-0.9-3.2-2.4-3-4.8c0.3-3.1,2.2-5.1,5-5.3c2-0.1,3.8,0.4,5.6,1.1C146.6,156.2,147,155.6,146.9,155.2z
			"/>
		<path class="st6" d="M53.1,156.1c1.9-0.8,3.9-1.4,6-1.1c2.2,0.2,3.6,1.5,4.3,3.6c0.1,0.5,0.3,0.9,0.3,1.4c0.4,2.6-0.6,4.3-3.1,5.1
			c-1.3,0.5-2.7,0.7-4.1,0.7c-16.4,0-32.8,0-49.2,0c-1.8,0-3.5-0.6-5-1.6c-1.8-1.2-2.5-2.9-2.1-5c0.5-2.8,2.3-4.7,4.8-5.1
			c2-0.3,3.9,0.1,5.8,0.8c0.2,0.1,0.6-0.4,0.4-0.5c-1.6-2-2.3-4.2-2.3-6.7c0.1-3.8,1.9-6.8,4.6-9.3c2.4-2.3,5.3-3.5,8.6-3.5
			c5.4,0,10.3,4,11.4,9.3c0.1,0.5,1-0.2,1.6-0.8c2.4-2.3,5.2-3.8,8.6-3.4c5.3,0.5,9.7,3.7,9.8,10c0,1.8-0.2,3.5-0.8,5.2
			C52.5,155.6,52.9,156.2,53.1,156.1z"/>
		<path class="st6" d="M65.2,36.7c3.8,0,7.6,0,11.4,0c3.1,0,5.5,2.5,5.5,5.7c0,2.9-2.4,5.3-5.3,5.4c-3.7,0.1-7.4,0-11.1,0
			c-3.9,0-7.8,0-11.8,0c-3.3,0-5.7-2.6-5.6-5.8c0.1-2.8,2.5-5.2,5.2-5.2C57.5,36.7,61.4,36.7,65.2,36.7
			C65.2,36.7,65.2,36.7,65.2,36.7z"/>
		<path class="st6" d="M55.3,67.5c0-2.8,0-7.2,0-10.1c0-2.8,0-6.9,0-9.7"/>
		<path class="st6" d="M75.9,47.7c0,2.4,0,6,0,8.4v1.2"/>
		<path class="st6" d="M63.8,32.5c-3.2-1.6-5.2-4.1-5.7-7.7c-0.3-2.3,0.7-4.1,2.6-5.5c1-0.7,2-1.3,2.8-2.2c1-1,1.6-2.2,1.5-3.7
			c0-1.1-0.5-1.8-1.4-2.3c-0.8-0.4-1.5-0.7-2.3-1.1c-3.4-1.4-2.8-5.2-0.9-6.7c1.8-1.4,3.8-1.7,6-1.3c3.9,0.6,7.6,4.1,8.5,7.9
			c0.7,3-0.3,5.7-2.1,8c-1.4,1.8-3.1,3.1-5.1,4.2c-0.9,0.5-1.8,0.9-2.7,1.5c-2.5,1.8-3.2,4.3-2,7.1C63.2,31.4,63.5,32,63.8,32.5z"/>
		<path class="st6" d="M137.6,116.2c-3.8,0-7.6,0-11.4,0c-0.6,0-0.8-0.1-0.8-0.7c0-3.8,0-7.7,0-11.5c0-6,4-10.8,9.8-12.1
			c6.7-1.4,13.5,3.4,14.4,10.2c0.2,1.3,0.1,2.5,0.1,3.8c0,3.2,0,6.4,0,9.6c0,0.6-0.2,0.7-0.7,0.7
			C145.3,116.2,141.4,116.2,137.6,116.2z"/>
	</g>
	<line class="st6" x1="56.7" y1="165.8" x2="142.6" y2="165.8"/>
</g>
</svg>
