<?xml version="1.0" encoding="utf-8"?>
<!-- Generator: Adobe Illustrator 23.0.6, SVG Export Plug-In . SVG Version: 6.00 Build 0)  -->
<svg version="1.1" id="Layer_1" xmlns="http://www.w3.org/2000/svg" alt ="star"  xmlns:xlink="http://www.w3.org/1999/xlink" x="0px" y="0px"
	 viewBox="0 0 200 200" style="enable-background:new 0 0 200 200;" xml:space="preserve">
<style type="text/css">
	.st0{fill:white;}
</style>
<g>
	<path class="st0" d="M4,78c3.3,0,6.7,0,10,0c21,0,41.9,0,62.9,0c1.1,0,1.5-0.3,1.8-1.3c3.4-10.8,6.8-21.6,10.3-32.3
		c3.5-10.8,7-21.7,10.5-32.5c0.3-1,0.6-1.9,0.9-3.1c0.8,1.2,1,2.3,1.3,3.4c4.7,14.5,9.3,29,13.9,43.5c2.3,7.1,4.6,14.2,6.8,21.2
		c0.3,1,0.8,1.2,1.7,1.2c23.6,0,47.2,0,70.8,0c0.7,0,1.4,0,2,0c0.2,0.5-0.1,0.6-0.3,0.7c-7.9,5.8-15.8,11.5-23.7,17.3
		c-10.4,7.6-20.8,15.2-31.3,22.8c-1.3,0.9-2.6,1.9-3.9,2.8c-0.6,0.4-0.7,0.8-0.5,1.5c2.3,6.9,4.5,13.9,6.7,20.9
		c4,12.6,8.1,25.3,12.1,37.9c1,3,1.9,6,3,9.2c-1.2-0.4-1.9-1.1-2.6-1.6c-10.3-7.5-20.6-15.1-31-22.6c-8-5.8-16-11.7-24-17.5
		c-0.7-0.5-1.2-0.4-1.8,0.1c-7.7,5.7-15.4,11.3-23.2,16.9c-9.4,6.9-18.9,13.7-28.3,20.6c-1.9,1.4-3.9,2.8-5.9,4.3
		c-0.2-0.8,0.1-1.4,0.3-1.9c2.3-7.1,4.5-14.2,6.8-21.3c3.5-10.9,7-21.8,10.5-32.7c1.3-4.1,2.6-8.1,4-12.2c0.2-0.7,0.1-1.2-0.5-1.7
		c-7-5-13.9-10-20.8-15.1c-7.1-5.2-14.1-10.3-21.2-15.5c-5.2-3.8-10.5-7.6-15.7-11.4c-0.6-0.4-1.1-0.8-1.6-1.3
		C3.9,78.2,3.9,78.1,4,78z"/>
</g>
</svg>
